# xmcd
#
# Track frame offsets:
#	150
#	10572
#	23777
#	37345
#	50245
#	69300
#	85072
#	97830
#	133047
#	147095
#	162335
#	176925
#	192537
#	204722
#	217485
#	232577
#	244360
#	258225
#
# Disc length: 3598 seconds
#
# Revision: 1
# Processed by: cddbd v1.5.1PL2 Copyright (c) Steve Scherf et al.
# Submitted via: audiograbber 1.83.01
#
DISCID=080e0c12
DTITLE=Slim Dusty - No. 50 The Golden Anniversary Album
DYEAR=1981
DGENRE=Country
TTITLE0=Country Revival
TTITLE1=Leave Him In The Long Yard
TTITLE2=Pub With No Beer
TTITLE3=Walk A Country Mile
TTITLE4=Camooweal
TTITLE5=Indian Pacific
TTITLE6=Highway Fever
TTITLE7=The Man From Snowy River
TTITLE8=Lights On The Hill
TTITLE9=Three Rivers Hotel
TTITLE10=The Beat Of The Government Stroke
TTITLE11=I Don't Sleep At Night
TTITLE12=When The RainTumbles Down In July
TTITLE13=The Angel Of Goulburn Hill
TTITLE14=Kelly's Offsider
TTITLE15=Things I See Around Me
TTITLE16=The Biggest Disappointment
TTITLE17=Duncan
EXTD=
EXTT0=
EXTT1=
EXTT2=
EXTT3=
EXTT4=
EXTT5=
EXTT6=
EXTT7=
EXTT8=
EXTT9=
EXTT10=
EXTT11=
EXTT12=
EXTT13=
EXTT14=
EXTT15=
EXTT16=
EXTT17=
PLAYORDER=
